# xmcd CD database file
#
# Track frame offsets:
#	150
#	4928
#	10140
#	27638
#	54765
#	105525
#	133297
#	163102
#	177352
#	198960
#	217530
#	251737
#	280500
#	289645
#
# Disc length: 4199 seconds
#
# Revision: 0
# Processed by: cddbd v1.5.1PL2 Copyright (c) Steve Scherf et al.
# Submitted via: CDex 1.50
#
DISCID=bb10650e
DTITLE=Stefano Bollani - Gente in cerca di nuvole-Progetto speciale: omaggio a Fosco Maraini
DYEAR=2005
DGENRE=Jazz
TTITLE0=Un coro dal nulla
TTITLE1=Un pianoforte dal nulla
TTITLE2=Nuvole nuvole
TTITLE3=Basta un colpo al vento
TTITLE4=Impalpabili
TTITLE5=Shangrillá
TTITLE6=Bisogna esser veloci
TTITLE7=Un contrabbasso dal nulla
TTITLE8=Era bulo pesto
TTITLE9=Ore 5, Himalaya(recitato traito da Il Nuovolario di Fosco Maraini)
TTITLE10=A me mi piace la montagna
TTITLE11=Buzzillare
TTITLE12=Nuvole nuvole reprise
TTITLE13=Un mondo mondo d'immondo
EXTD=YEAR: 2005
EXTT0=
EXTT1=
EXTT2=
EXTT3=
EXTT4=
EXTT5=
EXTT6=
EXTT7=
EXTT8=
EXTT9=
EXTT10=
EXTT11=
EXTT12=
EXTT13=
PLAYORDER=
